<svg width="6" height="10" viewBox="0 0 6 10" fill="none" xmlns="http://www.w3.org/2000/svg">
<path d="M5.30691 7.29156C5.154 7.13938 4.90668 7.13996 4.75449 7.29287L3.39074 8.66322V0.390625C3.39074 0.174883 3.21586 0 3.00012 0C2.78438 0 2.60949 0.174883 2.60949 0.390625V8.66324L1.24574 7.29285C1.09356 7.13994 0.846234 7.13936 0.693324 7.29154C0.540394 7.44375 0.539828 7.69107 0.691996 7.84398L2.72324 9.88508C2.72336 9.88521 2.7235 9.88531 2.72361 9.88543C2.8758 10.0379 3.12393 10.0384 3.27662 9.88545C3.27674 9.88531 3.27687 9.88521 3.27699 9.8851L5.30824 7.844C5.46039 7.69111 5.45986 7.44377 5.30691 7.29156Z" fill="#9AA3B0"/>
<path d="M0.69321 2.70844C0.84612 2.86063 1.09344 2.86004 1.24563 2.70713L2.60938 1.33678L2.60938 9.60938C2.60938 9.82512 2.78426 10 3 10C3.21575 10 3.39063 9.82512 3.39063 9.60938L3.39063 1.33676L4.75438 2.70715C4.90656 2.86006 5.15389 2.86064 5.3068 2.70846C5.45973 2.55625 5.46029 2.30893 5.30813 2.15602L3.27688 0.114922C3.27676 0.114785 3.27662 0.114688 3.27651 0.114571C3.12432 -0.0379484 2.8762 -0.0384376 2.7235 0.114551C2.72338 0.114687 2.72325 0.114785 2.72313 0.114903L0.691882 2.156C0.539734 2.30889 0.540261 2.55623 0.69321 2.70844Z" fill="#9AA3B0"/>
</svg>
