<svg width="24" height="24" viewBox="0 0 24 24" fill="none" xmlns="http://www.w3.org/2000/svg">
<path d="M6.51375 7.57874C6.21612 7.28404 6.21612 6.80625 6.51375 6.51155C6.81138 6.21685 7.29392 6.21685 7.59155 6.51155L17.4863 16.2975C17.784 16.5922 17.784 17.07 17.4863 17.3647C17.1887 17.6594 16.7062 17.6594 16.4085 17.3647L6.51375 7.57874Z" fill="#9AA3B0"/>
<path d="M16.4086 6.63547C16.7063 6.34077 17.1888 6.34077 17.4864 6.63547C17.7841 6.93016 17.7841 7.40796 17.4864 7.70266L7.59165 17.4886C7.29402 17.7833 6.81148 17.7833 6.51385 17.4886C6.21622 17.1939 6.21622 16.7161 6.51385 16.4214L16.4086 6.63547Z" fill="#9AA3B0"/>
</svg>
