<svg width="24" height="24" viewBox="0 0 24 24" fill="none" xmlns="http://www.w3.org/2000/svg">
<path d="M9.28634 3.73743C8.22907 3.73743 7.3304 4.45984 7.03965 5.4498H4.63436C4.26432 5.4498 4 5.74412 4 6.1187C4 6.49328 4.29075 6.78759 4.66079 6.78759H7.06608C7.3304 7.77756 8.25551 8.49997 9.31277 8.49997C10.3965 8.49997 11.2952 7.77756 11.5859 6.78759H18.3392C18.7093 6.78759 19 6.49328 19 6.1187C19 5.74412 18.7093 5.4498 18.3392 5.4498H11.5859C11.2687 4.45984 10.37 3.73743 9.28634 3.73743ZM9.31277 5.07522C9.86784 5.07522 10.3436 5.53007 10.3436 6.1187C10.3436 6.70733 9.86784 7.16218 9.31277 7.16218C8.75771 7.16218 8.28194 6.70733 8.28194 6.1187C8.28194 5.53007 8.75771 5.07522 9.31277 5.07522Z" fill="#2C2C2C"/>
<path d="M14.2423 9.61374C13.185 9.61374 12.2863 10.3361 11.9956 11.3261H4.66079C4.26432 11.3261 4 11.6204 4 11.995C4 12.3696 4.29075 12.6639 4.66079 12.6639H11.9956C12.2599 13.6539 13.185 14.3763 14.2423 14.3763C15.326 14.3763 16.2247 13.6539 16.5154 12.6639H18.3392C18.7093 12.6639 19 12.3696 19 11.995C19 11.6204 18.7093 11.3261 18.3392 11.3261H16.5154C16.2247 10.3361 15.326 9.61374 14.2423 9.61374ZM14.2687 10.9515C14.8238 10.9515 15.2996 11.4064 15.2996 11.995C15.2996 12.5836 14.8238 13.0385 14.2687 13.0385C13.7137 13.0385 13.2379 12.5836 13.2379 11.995C13.2379 11.4064 13.6872 10.9515 14.2687 10.9515Z" fill="#2C2C2C"/>
<path d="M9.45815 15.7627C8.40088 15.7627 7.5022 16.4851 7.21145 17.4751H4.66079C4.26432 17.4751 4 17.7694 4 18.144C4 18.5185 4.29075 18.8129 4.66079 18.8129H7.23789C7.5022 19.8028 8.42731 20.5252 9.48458 20.5252C10.5683 20.5252 11.467 19.8028 11.7577 18.8129H18.3392C18.7093 18.8129 19 18.5185 19 18.144C19 17.7694 18.7093 17.4751 18.3392 17.4751H11.7313C11.4405 16.4851 10.5419 15.7627 9.45815 15.7627ZM9.48458 17.1005C10.0396 17.1005 10.5154 17.5553 10.5154 18.144C10.5154 18.7326 10.0396 19.1874 9.48458 19.1874C8.92951 19.1874 8.45374 18.7326 8.45374 18.144C8.48018 17.5553 8.92951 17.1005 9.48458 17.1005Z" fill="#2C2C2C"/>
</svg>
