<svg width="24" height="24" viewBox="0 0 24 24" fill="none" xmlns="http://www.w3.org/2000/svg">
<path d="M19.154 18.2908L14.9832 14.12C15.7911 13.1221 16.2775 11.854 16.2775 10.4729C16.2775 7.27196 13.673 4.66742 10.472 4.66742C7.27101 4.66742 4.6665 7.27193 4.6665 10.4729C4.6665 13.6739 7.27104 16.2784 10.472 16.2784C11.8531 16.2784 13.1212 15.792 14.1191 14.9841L18.2899 19.1549C18.409 19.274 18.5655 19.3339 18.7219 19.3339C18.8784 19.3339 19.0348 19.274 19.154 19.1549C19.3929 18.9159 19.3929 18.5297 19.154 18.2908ZM10.472 15.0562C7.94447 15.0562 5.88872 13.0004 5.88872 10.4729C5.88872 7.94536 7.94447 5.88961 10.472 5.88961C12.9996 5.88961 15.0553 7.94536 15.0553 10.4729C15.0553 13.0004 12.9995 15.0562 10.472 15.0562Z" fill="#2C2C2C"/>
</svg>
